{
  "accessors": [
    {
      "bufferView": 2,
      "componentType": 5126,
      "count": 455,
      "max": [
        189.26951599121094,
        1.3621492385864258,
        189.26951599121094
      ],
      "min": [
        -189.26951599121094,
        -1.3621492385864258,
        -189.26951599121094
      ],
      "type": "VEC3"
    },
    {
      "bufferView": 2,
      "byteOffset": 5460,
      "componentType": 5126,
      "count": 455,
      "max": [
        1.0,
        1.0,
        1.0
      ],
      "min": [
        -1.0,
        -1.0,
        -1.0
      ],
      "type": "VEC3"
    },
    {
      "bufferView": 1,
      "componentType": 5126,
      "count": 455,
      "max": [
        1.0,
        1.0
      ],
      "min": [
        0.0,
        0.0
      ],
      "type": "VEC2"
    },
    {
      "bufferView": 0,
      "componentType": 5125,
      "count": 1920,
      "type": "SCALAR"
    },
    {
      "bufferView": 2,
      "byteOffset": 10920,
      "componentType": 5126,
      "count": 65532,
      "max": [
        54.077880859375,
        201.81314086914063,
        56.05870056152344
      ],
      "min": [
        -58.00748825073242,
        -2.143061876296997,
        -55.4830322265625
      ],
      "type": "VEC3"
    },
    {
      "bufferView": 2,
      "byteOffset": 797304,
      "componentType": 5126,
      "count": 65532,
      "max": [
        0.9999558329582214,
        0.9999932050704956,
        0.9999524354934692
      ],
      "min": [
        -0.9998460412025452,
        -0.9999992251396179,
        -0.9999824166297913
      ],
      "type": "VEC3"
    },
    {
      "bufferView": 1,
      "byteOffset": 3640,
      "componentType": 5126,
      "count": 65532,
      "max": [
        4.082085132598877,
        1.0
      ],
      "min": [
        -0.029808957129716873,
        0.0
      ],
      "type": "VEC2"
    },
    {
      "bufferView": 0,
      "byteOffset": 7680,
      "componentType": 5125,
      "count": 303120,
      "type": "SCALAR"
    },
    {
      "bufferView": 2,
      "byteOffset": 1583688,
      "componentType": 5126,
      "count": 65532,
      "max": [
        53.62822723388672,
        234.8611297607422,
        55.43210220336914
      ],
      "min": [
        -57.369895935058594,
        -2.175309181213379,
        -55.00087356567383
      ],
      "type": "VEC3"
    },
    {
      "bufferView": 2,
      "byteOffset": 2370072,
      "componentType": 5126,
      "count": 65532,
      "max": [
        0.9999809861183167,
        0.9999855756759644,
        0.9999960660934448
      ],
      "min": [
        -0.9999814629554749,
        -0.9999856352806091,
        -0.9999972581863403
      ],
      "type": "VEC3"
    },
    {
      "bufferView": 1,
      "byteOffset": 527896,
      "componentType": 5126,
      "count": 65532,
      "max": [
        2.818058729171753,
        1.0
      ],
      "min": [
        -0.02952015958726406,
        0.0
      ],
      "type": "VEC2"
    },
    {
      "bufferView": 0,
      "byteOffset": 1220160,
      "componentType": 5125,
      "count": 300846,
      "type": "SCALAR"
    },
    {
      "bufferView": 2,
      "byteOffset": 3156456,
      "componentType": 5126,
      "count": 65532,
      "max": [
        28.73158073425293,
        220.70541381835938,
        30.3782958984375
      ],
      "min": [
        -32.53879165649414,
        24.303857803344727,
        -28.894290924072266
      ],
      "type": "VEC3"
    },
    {
      "bufferView": 2,
      "byteOffset": 3942840,
      "componentType": 5126,
      "count": 65532,
      "max": [
        0.9999954104423523,
        0.9999802112579346,
        0.9999690055847168
      ],
      "min": [
        -0.9999951124191284,
        -0.9999949336051941,
        -0.9999690055847168
      ],
      "type": "VEC3"
    },
    {
      "bufferView": 1,
      "byteOffset": 1052152,
      "componentType": 5126,
      "count": 65532,
      "max": [
        4.424912452697754,
        1.0
      ],
      "min": [
        -0.02902902103960514,
        0.0
      ],
      "type": "VEC2"
    },
    {
      "bufferView": 0,
      "byteOffset": 2423544,
      "componentType": 5125,
      "count": 294099,
      "type": "SCALAR"
    },
    {
      "bufferView": 2,
      "byteOffset": 4729224,
      "componentType": 5126,
      "count": 26652,
      "max": [
        44.10466766357422,
        53.99770736694336,
        45.557350158691406
      ],
      "min": [
        -47.5478401184082,
        13.657207489013672,
        -44.590579986572266
      ],
      "type": "VEC3"
    },
    {
      "bufferView": 2,
      "byteOffset": 5049048,
      "componentType": 5126,
      "count": 26652,
      "max": [
        0.9999901056289673,
        0.9994211792945862,
        0.9998841285705566
      ],
      "min": [
        -0.9999851584434509,
        -0.999962329864502,
        -0.9999839067459106
      ],
      "type": "VEC3"
    },
    {
      "bufferView": 1,
      "byteOffset": 1576408,
      "componentType": 5126,
      "count": 26652,
      "max": [
        3.159837007522583,
        1.0
      ],
      "min": [
        -0.027195032685995102,
        0.0
      ],
      "type": "VEC2"
    },
    {
      "bufferView": 0,
      "byteOffset": 3599940,
      "componentType": 5125,
      "count": 118431,
      "type": "SCALAR"
    },
    {
      "bufferView": 2,
      "byteOffset": 5368872,
      "componentType": 5126,
      "count": 7076,
      "max": [
        54.03432083129883,
        219.75918579101563,
        54.37376403808594
      ],
      "min": [
        -57.24713134765625,
        -0.9840785264968872,
        -55.27085876464844
      ],
      "type": "VEC3"
    },
    {
      "bufferView": 2,
      "byteOffset": 5453784,
      "componentType": 5126,
      "count": 7076,
      "max": [
        0.9999716877937317,
        0.9999979734420776,
        0.999780535697937
      ],
      "min": [
        -0.9999716877937317,
        -0.9999979734420776,
        -0.999780535697937
      ],
      "type": "VEC3"
    },
    {
      "bufferView": 1,
      "byteOffset": 1789624,
      "componentType": 5126,
      "count": 7076,
      "max": [
        2.4712138175964355,
        1.0
      ],
      "min": [
        0.000979037955403328,
        0.0
      ],
      "type": "VEC2"
    },
    {
      "bufferView": 0,
      "byteOffset": 4073664,
      "componentType": 5125,
      "count": 17940,
      "type": "SCALAR"
    }
  ],
  "asset": {
    "extras": {
      "author": "VRJuice (https://sketchfab.com/dr490n)",
      "license": "CC-BY-4.0 (http://creativecommons.org/licenses/by/4.0/)",
      "source": "https://sketchfab.com/3d-models/eiffel-tower-bf82a4aedf37486d995774cedfcd9bc7",
      "title": "Eiffel Tower"
    },
    "generator": "Sketchfab-12.65.0",
    "version": "2.0"
  },
  "bufferViews": [
    {
      "buffer": 0,
      "byteLength": 4145424,
      "name": "floatBufferViews",
      "target": 34963
    },
    {
      "buffer": 0,
      "byteLength": 1846232,
      "byteOffset": 4145424,
      "byteStride": 8,
      "name": "floatBufferViews",
      "target": 34962
    },
    {
      "buffer": 0,
      "byteLength": 5538696,
      "byteOffset": 5991656,
      "byteStride": 12,
      "name": "floatBufferViews",
      "target": 34962
    }
  ],
  "buffers": [
    {
      "byteLength": 11530352,
      "uri": "scene.bin"
    }
  ],
  "materials": [
    {
      "doubleSided": true,
      "name": "material",
      "pbrMetallicRoughness": {
        "baseColorFactor": [
          0.39,
          0.39,
          0.39,
          1.0
        ],
        "metallicFactor": 0.0,
        "roughnessFactor": 0.6
      }
    },
    {
      "doubleSided": true,
      "name": "Toon",
      "pbrMetallicRoughness": {
        "baseColorFactor": [
          0.41591835841330743,
          0.34021654254348915,
          0.17996354536795156,
          1.0
        ],
        "roughnessFactor": 0.6
      }
    }
  ],
  "meshes": [
    {
      "name": "Cylinder_Mat_0",
      "primitives": [
        {
          "attributes": {
            "NORMAL": 1,
            "POSITION": 0,
            "TEXCOORD_0": 2
          },
          "indices": 3,
          "material": 0,
          "mode": 4
        }
      ]
    },
    {
      "name": "Toon_geo_Toon_0",
      "primitives": [
        {
          "attributes": {
            "NORMAL": 5,
            "POSITION": 4,
            "TEXCOORD_0": 6
          },
          "indices": 7,
          "material": 1,
          "mode": 4
        }
      ]
    },
    {
      "name": "Toon_geo_Toon_0",
      "primitives": [
        {
          "attributes": {
            "NORMAL": 9,
            "POSITION": 8,
            "TEXCOORD_0": 10
          },
          "indices": 11,
          "material": 1,
          "mode": 4
        }
      ]
    },
    {
      "name": "Toon_geo_Toon_0",
      "primitives": [
        {
          "attributes": {
            "NORMAL": 13,
            "POSITION": 12,
            "TEXCOORD_0": 14
          },
          "indices": 15,
          "material": 1,
          "mode": 4
        }
      ]
    },
    {
      "name": "Toon_geo_Toon_0",
      "primitives": [
        {
          "attributes": {
            "NORMAL": 17,
            "POSITION": 16,
            "TEXCOORD_0": 18
          },
          "indices": 19,
          "material": 1,
          "mode": 4
        }
      ]
    },
    {
      "name": "Paper_geo_Toon_0",
      "primitives": [
        {
          "attributes": {
            "NORMAL": 21,
            "POSITION": 20,
            "TEXCOORD_0": 22
          },
          "indices": 23,
          "material": 1,
          "mode": 4
        }
      ]
    }
  ],
  "nodes": [
    {
      "children": [
        1
      ],
      "matrix": [
        0.4257730543613434,
        0.0,
        0.0,
        0.0,
        0.0,
        9.454060964338837e-17,
        -0.4257730543613434,
        0.0,
        0.0,
        0.4257730543613434,
        9.454060964338837e-17,
        0.0,
        0.0,
        0.0,
        0.0,
        1.0
      ],
      "name": "Sketchfab_model"
    },
    {
      "children": [
        2
      ],
      "matrix": [
        1.0,
        0.0,
        0.0,
        0.0,
        0.0,
        0.0,
        1.0,
        0.0,
        0.0,
        -1.0,
        0.0,
        0.0,
        0.0,
        0.0,
        0.0,
        1.0
      ],
      "name": "d71e936e42504756a1a1df028de266aa.fbx"
    },
    {
      "children": [
        3,
        5,
        7,
        12
      ],
      "name": "RootNode"
    },
    {
      "children": [
        4
      ],
      "matrix": [
        0.6003226308789487,
        -0.6591355521868056,
        0.45293825484051625,
        0.0,
        0.5261719164389094,
        0.7520241511038026,
        0.3969921794035879,
        0.0,
        -0.6022921659839043,
        8.326672684688674e-17,
        0.7982757335622931,
        0.0,
        -81.05774688720703,
        232.9498748779297,
        -80.18263244628906,
        1.0
      ],
      "name": "CINEMA_4D_Editor"
    },
    {
      "name": "Object_4"
    },
    {
      "children": [
        6
      ],
      "matrix": [
        1.0,
        0.0,
        0.0,
        0.0,
        0.0,
        1.0,
        0.0,
        0.0,
        0.0,
        0.0,
        1.0,
        0.0,
        0.0,
        -1.3496665954589844,
        0.0,
        1.0
      ],
      "name": "Cylinder"
    },
    {
      "mesh": 0,
      "name": "Cylinder_Mat_0"
    },
    {
      "children": [
        8,
        9,
        10,
        11
      ],
      "matrix": [
        0.9998794823882556,
        0.0,
        0.015524841351654021,
        0.0,
        0.0,
        1.0,
        0.0,
        0.0,
        -0.015524841351654021,
        0.0,
        0.9998794823882556,
        0.0,
        2.4365785121917725,
        0.0,
        -1.1395732164382935,
        1.0
      ],
      "name": "Toon_geo"
    },
    {
      "mesh": 1,
      "name": "Toon_geo_Toon_0"
    },
    {
      "mesh": 2,
      "name": "Toon_geo_Toon_0"
    },
    {
      "mesh": 3,
      "name": "Toon_geo_Toon_0"
    },
    {
      "mesh": 4,
      "name": "Toon_geo_Toon_0"
    },
    {
      "children": [
        13
      ],
      "matrix": [
        0.9998794823882556,
        0.0,
        0.015524841351654021,
        0.0,
        0.0,
        1.0,
        0.0,
        0.0,
        -0.015524841351654021,
        0.0,
        0.9998794823882556,
        0.0,
        2.4365785121917725,
        0.0,
        -1.1395732164382935,
        1.0
      ],
      "name": "Paper_geo"
    },
    {
      "mesh": 5,
      "name": "Paper_geo_Toon_0"
    }
  ],
  "scene": 0,
  "scenes": [
    {
      "name": "Sketchfab_Scene",
      "nodes": [
        0
      ]
    }
  ]
}
