{
  "accessors": [
    {
      "bufferView": 1,
      "componentType": 5126,
      "count": 65532,
      "max": [
        21.445541381835938,
        0.2391633242368698,
        101.17357635498047
      ],
      "min": [
        -21.59366798400879,
        -21.593700408935547,
        0.1017141342163086
      ],
      "type": "VEC3"
    },
    {
      "bufferView": 1,
      "byteOffset": 786384,
      "componentType": 5126,
      "count": 65532,
      "max": [
        0.9912524223327637,
        0.9477857947349548,
        0.948515772819519
      ],
      "min": [
        -0.9912533164024353,
        -0.9477853775024414,
        -0.9485158324241638
      ],
      "type": "VEC3"
    },
    {
      "bufferView": 0,
      "componentType": 5125,
      "count": 65532,
      "type": "SCALAR"
    },
    {
      "bufferView": 1,
      "byteOffset": 1572768,
      "componentType": 5126,
      "count": 65534,
      "max": [
        21.593671798706055,
        21.607770919799805,
        101.17385864257813
      ],
      "min": [
        -21.60774040222168,
        -21.593700408935547,
        0.10143828392028809
      ],
      "type": "VEC3"
    },
    {
      "bufferView": 1,
      "byteOffset": 2359176,
      "componentType": 5126,
      "count": 65534,
      "max": [
        1.0,
        1.0,
        0.9993736147880554
      ],
      "min": [
        -1.0,
        -1.0,
        -0.9993720650672913
      ],
      "type": "VEC3"
    },
    {
      "bufferView": 0,
      "byteOffset": 262128,
      "componentType": 5125,
      "count": 67743,
      "type": "SCALAR"
    },
    {
      "bufferView": 1,
      "byteOffset": 3145584,
      "componentType": 5126,
      "count": 65533,
      "max": [
        21.60774040222168,
        21.548324584960938,
        101.17385864257813
      ],
      "min": [
        -21.60774040222168,
        -21.607770919799805,
        0.10143828392028809
      ],
      "type": "VEC3"
    },
    {
      "bufferView": 1,
      "byteOffset": 3931980,
      "componentType": 5126,
      "count": 65533,
      "max": [
        1.0,
        1.0,
        1.0
      ],
      "min": [
        -1.0,
        -1.0,
        -1.0
      ],
      "type": "VEC3"
    },
    {
      "bufferView": 0,
      "byteOffset": 533100,
      "componentType": 5125,
      "count": 66885,
      "type": "SCALAR"
    },
    {
      "bufferView": 1,
      "byteOffset": 4718376,
      "componentType": 5126,
      "count": 65533,
      "max": [
        21.60774040222168,
        21.589378356933594,
        101.17385864257813
      ],
      "min": [
        -21.60774040222168,
        -21.589378356933594,
        0.10143828392028809
      ],
      "type": "VEC3"
    },
    {
      "bufferView": 1,
      "byteOffset": 5504772,
      "componentType": 5126,
      "count": 65533,
      "max": [
        0.9995338320732117,
        1.0,
        1.0
      ],
      "min": [
        -0.9995338916778564,
        -1.0,
        -1.0
      ],
      "type": "VEC3"
    },
    {
      "bufferView": 0,
      "byteOffset": 800640,
      "componentType": 5125,
      "count": 65655,
      "type": "SCALAR"
    },
    {
      "bufferView": 1,
      "byteOffset": 6291168,
      "componentType": 5126,
      "count": 65533,
      "max": [
        21.60774040222168,
        21.607770919799805,
        112.00182342529297
      ],
      "min": [
        -21.60774040222168,
        -21.60771942138672,
        0.10143828392028809
      ],
      "type": "VEC3"
    },
    {
      "bufferView": 1,
      "byteOffset": 7077564,
      "componentType": 5126,
      "count": 65533,
      "max": [
        1.0,
        1.0,
        1.0
      ],
      "min": [
        -1.0,
        -1.0,
        -1.0
      ],
      "type": "VEC3"
    },
    {
      "bufferView": 0,
      "byteOffset": 1063260,
      "componentType": 5125,
      "count": 87687,
      "type": "SCALAR"
    },
    {
      "bufferView": 1,
      "byteOffset": 7863960,
      "componentType": 5126,
      "count": 65533,
      "max": [
        21.60774040222168,
        21.607770919799805,
        112.00182342529297
      ],
      "min": [
        -21.60774040222168,
        -21.60771942138672,
        0.10143828392028809
      ],
      "type": "VEC3"
    },
    {
      "bufferView": 1,
      "byteOffset": 8650356,
      "componentType": 5126,
      "count": 65533,
      "max": [
        1.0,
        1.0,
        1.0
      ],
      "min": [
        -1.0,
        -1.0,
        -1.0
      ],
      "type": "VEC3"
    },
    {
      "bufferView": 0,
      "byteOffset": 1414008,
      "componentType": 5125,
      "count": 104772,
      "type": "SCALAR"
    },
    {
      "bufferView": 1,
      "byteOffset": 9436752,
      "componentType": 5126,
      "count": 65534,
      "max": [
        21.60774040222168,
        21.607770919799805,
        101.17385864257813
      ],
      "min": [
        -21.60774040222168,
        -21.607770919799805,
        0.10143828392028809
      ],
      "type": "VEC3"
    },
    {
      "bufferView": 1,
      "byteOffset": 10223160,
      "componentType": 5126,
      "count": 65534,
      "max": [
        1.0,
        1.0,
        1.0
      ],
      "min": [
        -1.0,
        -1.0,
        -1.0
      ],
      "type": "VEC3"
    },
    {
      "bufferView": 0,
      "byteOffset": 1833096,
      "componentType": 5125,
      "count": 65619,
      "type": "SCALAR"
    },
    {
      "bufferView": 1,
      "byteOffset": 11009568,
      "componentType": 5126,
      "count": 65532,
      "max": [
        21.571399688720703,
        21.60771942138672,
        101.17385864257813
      ],
      "min": [
        -21.58934783935547,
        -21.589378356933594,
        0.10143828392028809
      ],
      "type": "VEC3"
    },
    {
      "bufferView": 1,
      "byteOffset": 11795952,
      "componentType": 5126,
      "count": 65532,
      "max": [
        1.0,
        1.0,
        1.0
      ],
      "min": [
        -1.0,
        -1.0,
        -0.9995355010032654
      ],
      "type": "VEC3"
    },
    {
      "bufferView": 0,
      "byteOffset": 2095572,
      "componentType": 5125,
      "count": 65583,
      "type": "SCALAR"
    },
    {
      "bufferView": 1,
      "byteOffset": 12582336,
      "componentType": 5126,
      "count": 65533,
      "max": [
        21.58934783935547,
        21.589378356933594,
        101.00344848632813
      ],
      "min": [
        -21.548294067382813,
        -21.607770919799805,
        0.10143828392028809
      ],
      "type": "VEC3"
    },
    {
      "bufferView": 1,
      "byteOffset": 13368732,
      "componentType": 5126,
      "count": 65533,
      "max": [
        1.0,
        1.0,
        0.9995352029800415
      ],
      "min": [
        -1.0,
        -1.0,
        -0.9995355010032654
      ],
      "type": "VEC3"
    },
    {
      "bufferView": 0,
      "byteOffset": 2357904,
      "componentType": 5125,
      "count": 65571,
      "type": "SCALAR"
    },
    {
      "bufferView": 1,
      "byteOffset": 14155128,
      "componentType": 5126,
      "count": 65532,
      "max": [
        21.593671798706055,
        21.59365463256836,
        100.9959487915039
      ],
      "min": [
        -21.548294067382813,
        -21.607770919799805,
        0.10143828392028809
      ],
      "type": "VEC3"
    },
    {
      "bufferView": 1,
      "byteOffset": 14941512,
      "componentType": 5126,
      "count": 65532,
      "max": [
        1.0,
        1.0,
        0.9995352625846863
      ],
      "min": [
        -1.0,
        -1.0,
        -0.9995355010032654
      ],
      "type": "VEC3"
    },
    {
      "bufferView": 0,
      "byteOffset": 2620188,
      "componentType": 5125,
      "count": 65565,
      "type": "SCALAR"
    },
    {
      "bufferView": 1,
      "byteOffset": 15727896,
      "componentType": 5126,
      "count": 65532,
      "max": [
        21.593671798706055,
        21.593698501586914,
        101.17357635498047
      ],
      "min": [
        -21.59366798400879,
        -0.5359315276145935,
        0.1017141342163086
      ],
      "type": "VEC3"
    },
    {
      "bufferView": 1,
      "byteOffset": 16514280,
      "componentType": 5126,
      "count": 65532,
      "max": [
        0.9912524223327637,
        0.9477849006652832,
        0.948515772819519
      ],
      "min": [
        -0.9912533164024353,
        -0.9477847814559937,
        -0.9485158324241638
      ],
      "type": "VEC3"
    },
    {
      "bufferView": 0,
      "byteOffset": 2882448,
      "componentType": 5125,
      "count": 65532,
      "type": "SCALAR"
    },
    {
      "bufferView": 1,
      "byteOffset": 17300664,
      "componentType": 5126,
      "count": 65532,
      "max": [
        0.23919041454792023,
        21.59365463256836,
        101.17357635498047
      ],
      "min": [
        -21.59366798400879,
        -0.5359315276145935,
        0.1017141342163086
      ],
      "type": "VEC3"
    },
    {
      "bufferView": 1,
      "byteOffset": 18087048,
      "componentType": 5126,
      "count": 65532,
      "max": [
        0.9912524223327637,
        0.9477849006652832,
        0.9485158324241638
      ],
      "min": [
        -0.9912533164024353,
        -0.9477848410606384,
        -0.9485158324241638
      ],
      "type": "VEC3"
    },
    {
      "bufferView": 0,
      "byteOffset": 3144576,
      "componentType": 5125,
      "count": 65532,
      "type": "SCALAR"
    },
    {
      "bufferView": 1,
      "byteOffset": 18873432,
      "componentType": 5126,
      "count": 28755,
      "max": [
        21.593671798706055,
        21.593698501586914,
        40.89400863647461
      ],
      "min": [
        -21.59366798400879,
        -21.593656539916992,
        0.1017141342163086
      ],
      "type": "VEC3"
    },
    {
      "bufferView": 1,
      "byteOffset": 19218492,
      "componentType": 5126,
      "count": 28755,
      "max": [
        0.9912524223327637,
        0.9477851390838623,
        0.9485111236572266
      ],
      "min": [
        -0.9912532567977905,
        -0.9477847814559937,
        -0.9485114812850952
      ],
      "type": "VEC3"
    },
    {
      "bufferView": 0,
      "byteOffset": 3406704,
      "componentType": 5125,
      "count": 28755,
      "type": "SCALAR"
    }
  ],
  "asset": {
    "extras": {
      "author": "Meshick (https://sketchfab.com/meshick)",
      "license": "CC-BY-4.0 (http://creativecommons.org/licenses/by/4.0/)",
      "source": "https://sketchfab.com/3d-models/eiffel-tower-a46d5d536f874eb8acd104e2df26e323",
      "title": "Eiffel Tower"
    },
    "generator": "Sketchfab-12.65.0",
    "version": "2.0"
  },
  "bufferViews": [
    {
      "buffer": 0,
      "byteLength": 3521724,
      "name": "floatBufferViews",
      "target": 34963
    },
    {
      "buffer": 0,
      "byteLength": 19563552,
      "byteOffset": 3521724,
      "byteStride": 12,
      "name": "floatBufferViews",
      "target": 34962
    }
  ],
  "buffers": [
    {
      "byteLength": 23085276,
      "uri": "scene.bin"
    }
  ],
  "materials": [
    {
      "doubleSided": true,
      "name": "Scene_-_Root",
      "pbrMetallicRoughness": {
        "baseColorFactor": [
          0.5,
          0.5,
          0.5,
          1.0
        ],
        "metallicFactor": 0.0,
        "roughnessFactor": 0.6
      }
    }
  ],
  "meshes": [
    {
      "name": "Object_0",
      "primitives": [
        {
          "attributes": {
            "NORMAL": 1,
            "POSITION": 0
          },
          "indices": 2,
          "material": 0,
          "mode": 4
        }
      ]
    },
    {
      "name": "Object_1",
      "primitives": [
        {
          "attributes": {
            "NORMAL": 4,
            "POSITION": 3
          },
          "indices": 5,
          "material": 0,
          "mode": 4
        }
      ]
    },
    {
      "name": "Object_2",
      "primitives": [
        {
          "attributes": {
            "NORMAL": 7,
            "POSITION": 6
          },
          "indices": 8,
          "material": 0,
          "mode": 4
        }
      ]
    },
    {
      "name": "Object_3",
      "primitives": [
        {
          "attributes": {
            "NORMAL": 10,
            "POSITION": 9
          },
          "indices": 11,
          "material": 0,
          "mode": 4
        }
      ]
    },
    {
      "name": "Object_4",
      "primitives": [
        {
          "attributes": {
            "NORMAL": 13,
            "POSITION": 12
          },
          "indices": 14,
          "material": 0,
          "mode": 4
        }
      ]
    },
    {
      "name": "Object_5",
      "primitives": [
        {
          "attributes": {
            "NORMAL": 16,
            "POSITION": 15
          },
          "indices": 17,
          "material": 0,
          "mode": 4
        }
      ]
    },
    {
      "name": "Object_6",
      "primitives": [
        {
          "attributes": {
            "NORMAL": 19,
            "POSITION": 18
          },
          "indices": 20,
          "material": 0,
          "mode": 4
        }
      ]
    },
    {
      "name": "Object_7",
      "primitives": [
        {
          "attributes": {
            "NORMAL": 22,
            "POSITION": 21
          },
          "indices": 23,
          "material": 0,
          "mode": 4
        }
      ]
    },
    {
      "name": "Object_8",
      "primitives": [
        {
          "attributes": {
            "NORMAL": 25,
            "POSITION": 24
          },
          "indices": 26,
          "material": 0,
          "mode": 4
        }
      ]
    },
    {
      "name": "Object_9",
      "primitives": [
        {
          "attributes": {
            "NORMAL": 28,
            "POSITION": 27
          },
          "indices": 29,
          "material": 0,
          "mode": 4
        }
      ]
    },
    {
      "name": "Object_10",
      "primitives": [
        {
          "attributes": {
            "NORMAL": 31,
            "POSITION": 30
          },
          "indices": 32,
          "material": 0,
          "mode": 4
        }
      ]
    },
    {
      "name": "Object_11",
      "primitives": [
        {
          "attributes": {
            "NORMAL": 34,
            "POSITION": 33
          },
          "indices": 35,
          "material": 0,
          "mode": 4
        }
      ]
    },
    {
      "name": "Object_12",
      "primitives": [
        {
          "attributes": {
            "NORMAL": 37,
            "POSITION": 36
          },
          "indices": 38,
          "material": 0,
          "mode": 4
        }
      ]
    }
  ],
  "nodes": [
    {
      "children": [
        1
      ],
      "matrix": [
        1.0,
        0.0,
        0.0,
        0.0,
        0.0,
        2.220446049250313e-16,
        -1.0,
        0.0,
        0.0,
        1.0,
        2.220446049250313e-16,
        0.0,
        0.0,
        0.0,
        0.0,
        1.0
      ],
      "name": "Sketchfab_model"
    },
    {
      "children": [
        2,
        3,
        4,
        5,
        6,
        7,
        8,
        9,
        10,
        11,
        12,
        13,
        14
      ],
      "name": "0d63fd1ffc884650a4b73c68ccf03872.stl.cleaner"
    },
    {
      "mesh": 0,
      "name": "Object_2"
    },
    {
      "mesh": 1,
      "name": "Object_3"
    },
    {
      "mesh": 2,
      "name": "Object_4"
    },
    {
      "mesh": 3,
      "name": "Object_5"
    },
    {
      "mesh": 4,
      "name": "Object_6"
    },
    {
      "mesh": 5,
      "name": "Object_7"
    },
    {
      "mesh": 6,
      "name": "Object_8"
    },
    {
      "mesh": 7,
      "name": "Object_9"
    },
    {
      "mesh": 8,
      "name": "Object_10"
    },
    {
      "mesh": 9,
      "name": "Object_11"
    },
    {
      "mesh": 10,
      "name": "Object_12"
    },
    {
      "mesh": 11,
      "name": "Object_13"
    },
    {
      "mesh": 12,
      "name": "Object_14"
    }
  ],
  "scene": 0,
  "scenes": [
    {
      "name": "Sketchfab_Scene",
      "nodes": [
        0
      ]
    }
  ]
}
